<svg id="Layer_1" data-name="Layer 1" xmlns="http://www.w3.org/2000/svg" viewBox="0 0 4000 4000"><defs><style>.cls-1{fill:#060626;}</style></defs><path class="cls-1" d="M2043.53,3610.54c-25-138.35-143.56-239.53-284.08-244.18a1273.14,1273.14,0,0,1-196.12-21.84c-487.7-92.89-853.44-452.39-961.63-887.87h0c-74.6,29.24-110,114.68-77.85,188.08,205.86,470.31,632.48,834.44,1174.9,937.74a1616.22,1616.22,0,0,0,344.78,28.08Z"/><path class="cls-1" d="M602,1199.24a1608.34,1608.34,0,0,0-184.31,499.45c-47.46,249.18-34.68,495.86,28,725.09h0c78-32.9,126.88-110.73,123.74-195.33a1105,1105,0,0,1,18.8-248c69.3-363.85,310.24-653.37,628.53-808.44C1021.69,1171.84,807.19,1178.61,602,1199.24Z"/><path class="cls-1" d="M2328.78,423.08C1689,290,1062,555.5,700.81,1047.34c92.86-8.35,225.64-17.48,385.2-18.58,567.67-3.89,979.23-6.72,1317.17,213.6,296.36,193.21,670.56,645.71,568.35,1192-82.57,441.34-449.19,800.22-926.47,909h0c33.43,158.59,191.93,258.75,349.06,219C2991.85,3411.2,3476.67,2921.72,3588,2271.06,3733.51,1420.9,3173.24,598.72,2328.78,423.08Z"/></svg>