<svg id="Layer_1" data-name="Layer 1" xmlns="http://www.w3.org/2000/svg" viewBox="0 0 4000 4000"><defs><style>.cls-1{fill:#0021c8;}</style></defs><path class="cls-1" d="M2127.92,2404.19c-15.9-87.8-91.11-152-180.3-155a808.44,808.44,0,0,1-124.46-13.86c-309.52-59-541.63-287.11-610.3-563.48h0a89.63,89.63,0,0,0-49.4,119.36c130.65,298.48,401.39,529.57,745.64,595.14a1025.83,1025.83,0,0,0,218.82,17.81Z"/><path class="cls-1" d="M1213.07,873.87A1025,1025,0,0,0,1113.86,1651h0a129,129,0,0,0,78.54-124,701.56,701.56,0,0,1,11.93-157.38c44-230.91,196.89-414.66,398.89-513.07C1479.41,856.48,1343.28,860.78,1213.07,873.87Z"/><path class="cls-1" d="M2309,381.28c-406-84.45-804,84.05-1033.19,396.19,58.93-5.3,143.21-11.1,244.47-11.79,360.27-2.47,621.46-4.27,835.93,135.55,188.08,122.63,425.57,409.8,360.71,756.51-52.41,280.09-285.08,507.85-588,576.86h0c21.21,100.65,121.81,164.22,221.52,139,379.35-95.92,687-406.57,757.71-819.5C3200.45,1014.54,2844.88,492.76,2309,381.28Z"/><path class="cls-1" d="M736.09,3000.81h-2.92c-34.21-41.32-77-69.86-118.34-81.21s-65.51-14.27-92.67-14.27c-203.8,0-340.66,188.15-340.66,367.66,0,95.48,34.21,188.15,91.24,255.14a322.08,322.08,0,0,0,246.6,114c99.84,0,172.51-35.59,219.56-104.07h2.86v90.28h201V2684.82L735.4,2537Zm-44.24,402a169.72,169.72,0,0,1-125.45,51.35q-74.81,0-124-51.35c-34.22-34.37-51.3-76.81-51.3-129.85s17.14-95.49,51.3-129.75,75.59-49.92,124-49.92c49.91,0,91.29,15.92,125.45,49.92,32.83,34.21,49.91,77,49.91,129.75s-17.13,95.48-49.91,129.69Z"/><path class="cls-1" d="M1372.63,2902.46A368.62,368.62,0,0,0,1185.91,2951a381.25,381.25,0,0,0-138.29,135.42A357.58,357.58,0,0,0,996.27,3273,367.84,367.84,0,0,0,1049,3465.43a356,356,0,0,0,141.21,131.13,411.8,411.8,0,0,0,195.42,47.21,354.7,354.7,0,0,0,195.26-55.59,303.15,303.15,0,0,0,79.56-72.41,293.48,293.48,0,0,0,21.81-33.57l-149.65-106.62a169.37,169.37,0,0,1-59.94,68.58,164.87,164.87,0,0,1-89.8,27.11,179.06,179.06,0,0,1-115.48-38.51A148.53,148.53,0,0,1,1209,3331.55h512.89a486.62,486.62,0,0,0,4.25-74.27q0-158.18-98.35-256.58C1562.27,2935.25,1478.19,2902.46,1372.63,2902.46Zm-159.61,291c4.24-27.11,21.22-55.65,48.48-82.7,28.49-27.11,62.7-39.94,105.45-39.94,48.49,0,91.24,17.13,114,42.8a141,141,0,0,1,37.24,79.84Z"/><path class="cls-1" d="M2742.52,3014.44h-1.43V2911.8H2544.35v708.53H2748.2v-310.8c0-128.31,65.56-201,168.21-201a412.72,412.72,0,0,1,65.56,5.67V2911.8a246.94,246.94,0,0,0-55.59-7.16C2848,2904.64,2779.55,2937.47,2742.52,3014.44Z"/><rect class="cls-1" x="3037.19" y="2911.8" width="208.15" height="708.52"/><path class="cls-1" d="M3037.19,2775.21c1.27,1.48,3.18,3.61,5.62,6.1a117.81,117.81,0,0,0,46.84,29.81,113.74,113.74,0,0,0,35.86,5.68,117.23,117.23,0,0,0,85.46-35.49,124.56,124.56,0,0,0,28.22-45.25,117.8,117.8,0,0,0,6-37.61,127.29,127.29,0,0,0-15.91-60.42Z"/><path class="cls-1" d="M3819.5,3091.41V2911.8H3644.13V2544l-202.42,144.28V2911.8H3300.56v179.61h136.86v279.44c0,172.51,85.5,259.45,256.57,259.45q72.74,0,124-17.14V3445a585.23,585.23,0,0,1-72.67,5.73c-68.43,0-101.21-34.22-101.21-91.24v-268Z"/><path class="cls-1" d="M2324.21,3344.7a164.49,164.49,0,0,1-42.12,58.94c-45.46,40.15-99,41.32-116.7,41.32-51.29,0-91.24-17.14-122.59-51.3-32.78-32.78-48.48-77-48.48-129.75,0-54.15,17.19-97,49.92-129.74A162.21,162.21,0,0,1,2164,3085.74c42.81,0,77,10,105.51,31.35a152.48,152.48,0,0,1,52.4,71.66L2488.49,3070a355.9,355.9,0,0,0-106.41-114c-87.42-59.36-175.95-61.22-213.82-61.32a419.07,419.07,0,0,0-196.75,48.48c-58.35,34.21-105.51,78.4-138.29,135.42a359.45,359.45,0,0,0-51.29,188.21c-4.3,208.1,162.53,372.06,381.92,369.19a415.18,415.18,0,0,0,149.7-27,357,357,0,0,0,126.93-81.32,280.17,280.17,0,0,0,48.81-65.35Z"/></svg>